<?xml version="1.0" standalone="no"?>
<!DOCTYPE svg PUBLIC "-//W3C//DTD SVG 20010904//EN"
 "http://www.w3.org/TR/2001/REC-SVG-20010904/DTD/svg10.dtd">
<svg version="1.0" xmlns="http://www.w3.org/2000/svg"
 width="150.000000pt" height="150.000000pt" viewBox="0 0 150.000000 150.000000"
 preserveAspectRatio="xMidYMid meet">
<metadata>
Created by potrace 1.11, written by Peter Selinger 2001-2013
</metadata>
<g transform="translate(0.000000,150.000000) scale(0.100000,-0.100000)"
fill="#000000" stroke="none">
<path d="M789 998 c-1 -277 -2 -515 -3 -529 -8 -87 -61 -178 -104 -180 -9 0
-27 -2 -40 -3 -12 -2 -40 5 -62 15 l-39 18 -19 -32 c-11 -18 -30 -52 -43 -77
-13 -25 -26 -47 -29 -50 -3 -3 -15 -24 -28 -47 l-23 -42 22 -11 c93 -50 224
-69 341 -50 186 30 294 139 332 335 12 65 15 179 16 618 l0 537 -160 0 -160 0
-1 -502z"/>
</g>
</svg>
