<svg width="28" height="58" viewBox="0 0 28 58" fill="none" xmlns="http://www.w3.org/2000/svg">
<path d="M7.25 9.7484V36.2517C7.25 39.8407 10.1594 42.7501 13.7483 42.7501C17.3373 42.7501 20.2467 39.8406 20.2467 36.2517V32.3692C20.2467 31.2255 21.1435 30.2826 22.2859 30.2253C24.2265 30.1281 25.75 28.5264 25.75 26.5833V21.5266C25.75 19.9454 24.4682 18.6636 22.887 18.6636C21.699 18.6636 20.68 19.3872 20.2467 20.4177V9.7484C20.2467 6.15947 17.3373 3.25006 13.7483 3.25006C10.1594 3.25006 7.25 6.15946 7.25 9.7484Z" fill="white" stroke="black" stroke-width="1.5"/>
<path d="M1 36.0001H26L25.3506 40.1364L24.6201 40.4546L23.4026 57.0001H3.5974L2.2987 40.4546L1.32468 40.1364L1 36.0001Z" fill="white" stroke="black" stroke-width="1.5"/>
<line x1="9.26766" y1="10.3685" x2="7.13531" y2="9.30233" stroke="black" stroke-linecap="round"/>
<line x1="9.5" y1="12.5" x2="6.5" y2="12.5" stroke="black" stroke-linecap="round"/>
<line x1="8.53171" y1="16.477" x2="5.67672" y2="15.335" stroke="black" stroke-linecap="round"/>
<line x1="12.5" y1="19.5" x2="11.5" y2="19.5" stroke="black" stroke-linecap="round"/>
<line x1="12.293" y1="17.1787" x2="11.6741" y2="16.8692" stroke="black" stroke-linecap="round"/>
<line x1="16.5244" y1="11.5725" x2="15.9055" y2="11.882" stroke="black" stroke-linecap="round"/>
<line x1="26.7764" y1="21.1079" x2="26.1574" y2="21.4174" stroke="black" stroke-linecap="round"/>
<line x1="24.1542" y1="22.3146" x2="24.2355" y2="22.3958" stroke="black" stroke-linecap="round"/>
<line x1="23.2518" y1="25.1574" x2="22.0725" y2="24.8124" stroke="black" stroke-linecap="round"/>
<line x1="21.0655" y1="8.54564" x2="18.9331" y2="9.61181" stroke="black" stroke-linecap="round"/>
<line x1="18.7949" y1="1.7354" x2="16.6626" y2="2.80157" stroke="black" stroke-linecap="round"/>
<line x1="12.9141" y1="2.57794" x2="12.9637" y2="2.62753" stroke="black" stroke-linecap="round"/>
<line x1="9.11818" y1="1.68261" x2="10.5562" y2="2.6413" stroke="black" stroke-linecap="round"/>
<line x1="21.0655" y1="13.8425" x2="18.9331" y2="14.9086" stroke="black" stroke-linecap="round"/>
<line x1="18.7023" y1="22.1278" x2="17.3809" y2="22.5682" stroke="black" stroke-linecap="round"/>
<line x1="21.6349" y1="32.6644" x2="18.0811" y2="33.2567" stroke="black" stroke-linecap="round"/>
<line x1="15.7676" y1="24.4361" x2="15.1486" y2="24.7456" stroke="black" stroke-linecap="round"/>
<line x1="10.3791" y1="28.9379" x2="9.05769" y2="29.3784" stroke="black" stroke-linecap="round"/>
<line x1="8.14626" y1="31.9822" x2="5.29128" y2="33.1242" stroke="black" stroke-linecap="round"/>
</svg>
