<svg width="1440" height="260" viewBox="0 0 1440 260" fill="none" xmlns="http://www.w3.org/2000/svg">
<line x1="-18.0547" y1="1" x2="1458.04" y2="1" stroke="black" stroke-width="2"/>
<line x1="1078" y1="260" x2="1078" y2="1" stroke="black" stroke-width="2"/>
<line x1="1094.4" y1="241.049" x2="1094.4" y2="1.00316" stroke="black" stroke-width="2"/>
<line x1="1110.8" y1="222.098" x2="1110.8" y2="1.0031" stroke="black" stroke-width="2"/>
<path d="M1127.38 203.147L1127.71 201.975C1132.32 185.826 1132.2 168.697 1127.38 152.611V152.611L1126.79 150.231C1122.88 134.392 1123.08 117.814 1127.38 102.075V102.075L1128.03 99.7328C1132.43 83.9361 1132.2 67.2111 1127.38 51.539V51.539V51.539C1123.08 34.9701 1123.08 17.5717 1127.38 1.00304V1.00304" stroke="#E8124F" stroke-width="2"/>
<line x1="1143.6" y1="184.196" x2="1143.6" y2="1.0031" stroke="black" stroke-width="2"/>
<line x1="1160" y1="165.245" x2="1160" y2="1.00317" stroke="black" stroke-width="2"/>
</svg>
