<svg viewBox="0 0 175 162" fill="none" xmlns="http://www.w3.org/2000/svg">
<path fill-rule="evenodd" clip-rule="evenodd" d="M138 175.916C68.136 175.916 11.5 116.408 11.5 42.9997C11.5 -30.4082 68.136 -89.917 138 -89.917C207.864 -89.917 264.5 -30.4082 264.5 42.9997C264.5 116.408 207.864 175.916 138 175.916ZM239.979 61.6783C217.745 56.2503 196.956 54.8544 177.546 57.5209C187.218 82.5962 194.258 107.13 198.658 131.125C220.055 114.837 235.288 90.1553 239.979 61.6783ZM177.42 143.583C173.291 117.48 165.729 90.5286 154.72 62.7351C123.815 72.7795 96.7665 94.4362 73.2583 127.851C90.9858 142.804 113.499 151.749 138 151.749C151.958 151.749 165.27 148.846 177.42 143.583ZM56.8722 110.535C42.8654 91.9844 34.5 68.5182 34.5 42.9991C34.5 40.6033 34.5737 38.2256 34.7189 35.8683C35.1504 35.8748 35.602 35.8815 36.0752 35.8886C72.1407 36.4302 94.376 35.4706 120.029 30.5431C126.4 29.3192 132.562 27.8787 138.506 26.2107C140.86 31.009 143.116 35.7836 145.275 40.5344C111.802 52.1022 82.2442 75.4777 56.8722 110.535ZM38.834 11.7589C72.0472 12.1997 92.6897 11.2273 115.893 6.77038C119.749 6.02959 123.507 5.20451 127.163 4.29266C116.763 -14.8235 104.855 -34.3051 91.4371 -54.1506C66.2995 -40.8228 47.0401 -17.0406 38.834 11.7589ZM113.798 -62.7616C127.26 -42.5147 139.223 -22.5813 149.684 -2.95974C171.727 -11.9163 188.837 -25.2272 200.495 -43.6954C183.13 -57.5372 161.478 -65.7509 138 -65.7509C129.666 -65.7509 121.562 -64.7159 113.798 -62.7616ZM217.363 -26.8112C231.334 -9.29522 240.149 12.9142 241.357 37.2399C215.344 31.3493 190.879 30.4795 168.039 34.5962C165.672 29.2595 163.19 23.8988 160.592 18.5141C184.292 8.43679 203.482 -6.36244 217.363 -26.8112Z" fill="#E0E0E0"/>
</svg>
