<svg viewBox="0 0 1440 532" fill="none" xmlns="http://www.w3.org/2000/svg">
<mask id="mask0" mask-type="alpha" maskUnits="userSpaceOnUse" x="-3" y="0" width="1463" height="555">
<path d="M1460 555L1448.97 7.44618L-3 0V535.952L1460 555Z" fill="#F9F9F9"/>
</mask>
<g mask="url(#mask0)">
<path d="M1460 555L1448.97 7.44618L-3 0V535.952L1460 555Z" fill="#F9F9F9"/>
<line x1="1095.74" y1="95.5757" x2="1097.33" y2="510.649" stroke="black"/>
<line x1="1256.36" y1="111.481" x2="1256.36" y2="544.048" stroke="black"/>
<line x1="1416.98" y1="95.576" x2="1418.57" y2="567.901" stroke="black"/>
<line x1="1003" y1="510.152" x2="1578.7" y2="510.152" stroke="black"/>
<line x1="1003" y1="351.119" x2="1578.7" y2="351.119" stroke="black"/>
<line x1="1003" y1="192.087" x2="1578.7" y2="192.087" stroke="black"/>
<path d="M1256.89 401.661H1285.49C1297.64 401.661 1307.49 391.811 1307.49 379.661V351.057" stroke="black"/>
<path d="M1257.45 481.177L1365.01 481.175C1377.16 481.175 1387.01 471.325 1387.01 459.175L1387.01 415.998L1457.04 350.824" stroke="black"/>
<path d="M1180.32 497.08L1380.92 497.08C1393.07 497.08 1402.92 487.23 1402.92 475.08L1402.91 423.953L1476.92 350.824" stroke="black"/>
<path d="M1257.45 465.271L1349.11 465.271C1361.26 465.271 1371.11 455.421 1371.11 443.271L1371.11 408.047L1435.57 350.824" stroke="black"/>
<path d="M1257.45 449.371L1333.2 449.371C1345.35 449.371 1355.2 439.521 1355.2 427.371L1355.2 350.824" stroke="black"/>
<path d="M1257.45 433.466L1317.3 433.465C1329.45 433.465 1339.3 423.616 1339.3 411.466L1339.3 350.823" stroke="black"/>
<path d="M1257.45 417.563L1301.4 417.563C1313.55 417.563 1323.39 407.714 1323.39 395.564L1323.4 350.824" stroke="black"/>
<line x1="1418.8" y1="462.158" x2="1451.34" y2="429.622" stroke="black"/>
<line x1="1436.73" y1="510.226" x2="1482.71" y2="464.25" stroke="black"/>
<circle cx="1182.71" cy="424.774" r="72.6547" stroke="black"/>
<line x1="1433.62" y1="417.773" x2="1484.23" y2="367.169" stroke="black"/>
<path d="M1110.35 424.774V283.385C1110.35 282.764 1110.49 282.151 1110.77 281.596L1125.13 252.867C1126.59 249.947 1130.75 249.911 1132.26 252.806L1144.17 275.643C1145.67 278.51 1149.77 278.51 1151.27 275.643L1163.26 252.66C1164.75 249.794 1168.85 249.794 1170.35 252.66L1182.34 275.643C1183.84 278.51 1187.94 278.51 1189.43 275.643L1201.42 252.66C1202.92 249.794 1207.02 249.794 1208.52 252.66L1220.51 275.643C1222 278.51 1226.11 278.51 1227.6 275.643L1240.18 251.536C1241.55 248.916 1245.18 248.632 1246.94 251.009L1256.66 264.152H1323.45V350.824" stroke="black"/>
<path d="M1355.26 350.824V232.345L1312.32 232.345L1256.66 232.345" stroke="black"/>
<path d="M1339.35 350.029V248.249H1298H1256.66" stroke="black"/>
<path d="M1577.9 318.223H1371.95L1371.16 216.442H1329.81H1269.38L1203.38 158.395L1158.06 191.792" stroke="black"/>
<path d="M1577.9 302.319H1387.06V200.539H1305.16L1294.82 191.792M1294.82 191.792L1257.45 156.805L1294.82 117.842L1329.81 156.805L1294.82 191.792Z" stroke="black"/>
<rect x="1277.04" y="139.016" width="33.987" height="33.987" stroke="black"/>
<rect x="1294.03" y="140.814" width="21.4905" height="21.4905" transform="rotate(45 1294.03 140.814)" stroke="black"/>
<rect x="1299.89" y="150.149" width="11.7226" height="11.7226" transform="rotate(90 1299.89 150.149)" stroke="black"/>
<line x1="1203.62" y1="158.038" x2="1143.19" y2="191.434" stroke="black"/>
<path d="M1203.7 158.329L1128.64 191.792" stroke="black"/>
<path d="M1203.65 158.349L1111.94 191.792" stroke="black"/>
<line x1="1203.53" y1="158.078" x2="1095.39" y2="191.475" stroke="black"/>
<line x1="1417.98" y1="301.828" x2="1578.6" y2="271.612" stroke="black"/>
<line x1="1417.88" y1="301.859" x2="1578.5" y2="233.476" stroke="black"/>
<line x1="1417.98" y1="263.66" x2="1578.6" y2="233.444" stroke="black"/>
<line x1="1417.89" y1="263.687" x2="1578.51" y2="200.074" stroke="black"/>
<line x1="1417.98" y1="230.264" x2="1578.6" y2="200.048" stroke="black"/>
<path d="M1417.8 230.011L1520.65 191.792L1417.79 97.1682" stroke="black"/>
<line y1="-0.5" x2="415.077" y2="-0.5" transform="matrix(-0.00383139 0.999993 0.999993 0.00383139 361.762 95.5776)" stroke="black"/>
<line y1="-0.5" x2="432.567" y2="-0.5" transform="matrix(0 1 1 0 201.139 111.481)" stroke="black"/>
<line y1="-0.5" x2="472.328" y2="-0.5" transform="matrix(-0.00336698 0.999994 0.999994 0.00336698 40.5166 95.5776)" stroke="black"/>
<line y1="-0.5" x2="575.696" y2="-0.5" transform="matrix(-1 2.51531e-08 2.51531e-08 1 454 510.652)" stroke="black"/>
<line y1="-0.5" x2="575.696" y2="-0.5" transform="matrix(-1 2.51531e-08 2.51531e-08 1 454 351.619)" stroke="black"/>
<line y1="-0.5" x2="575.696" y2="-0.5" transform="matrix(-1 2.51531e-08 2.51531e-08 1 454 192.587)" stroke="black"/>
<path d="M200.111 401.661H171.507C159.357 401.661 149.507 391.811 149.507 379.661V351.057" stroke="black"/>
<path d="M199.549 481.177L91.9882 481.175C79.8381 481.175 69.9886 471.325 69.9886 459.175L69.9886 415.998L-0.0363816 350.824" stroke="black"/>
<path d="M276.679 497.08L76.0843 497.08C63.9339 497.08 54.0842 487.23 54.0843 475.08L54.0847 423.953L-19.9156 350.824" stroke="black"/>
<path d="M199.549 465.271L107.894 465.271C95.7444 465.271 85.8949 455.421 85.8946 443.271L85.8938 408.047L21.4329 350.824" stroke="black"/>
<path d="M199.549 449.371L123.798 449.371C111.647 449.371 101.798 439.521 101.798 427.371L101.798 350.824" stroke="black"/>
<path d="M199.549 433.466L139.7 433.465C127.55 433.465 117.701 423.616 117.701 411.466L117.7 350.823" stroke="black"/>
<path d="M199.549 417.563L155.605 417.563C143.455 417.563 133.605 407.714 133.605 395.564L133.605 350.824" stroke="black"/>
<line y1="-0.5" x2="46.0123" y2="-0.5" transform="matrix(-0.707107 -0.707107 -0.707107 0.707107 37.8438 462.511)" stroke="black"/>
<line y1="-0.5" x2="71.5644" y2="-0.5" transform="matrix(-0.707107 -0.707107 -0.707107 0.707107 7.12012 465.836)" stroke="black"/>
<line y1="-0.5" x2="65.0202" y2="-0.5" transform="matrix(-0.707107 -0.707107 -0.707107 0.707107 19.9136 510.58)" stroke="black"/>
<circle r="72.6547" transform="matrix(-1 0 0 1 274.294 424.774)" stroke="black"/>
<line y1="-0.5" x2="71.5644" y2="-0.5" transform="matrix(-0.707107 -0.707107 -0.707107 0.707107 23.0229 418.126)" stroke="black"/>
<path d="M346.653 424.774V283.385C346.653 282.764 346.509 282.151 346.231 281.596L331.867 252.867C330.407 249.947 326.253 249.911 324.743 252.806L312.827 275.643C311.332 278.51 307.23 278.51 305.734 275.643L293.743 252.66C292.248 249.794 288.146 249.794 286.651 252.66L274.659 275.643C273.164 278.51 269.062 278.51 267.567 275.643L255.576 252.66C254.08 249.794 249.978 249.794 248.483 252.66L236.492 275.643C234.996 278.51 230.895 278.51 229.399 275.643L216.821 251.536C215.454 248.916 211.815 248.632 210.058 251.009L200.344 264.152H133.55V350.824" stroke="black"/>
<path d="M101.744 350.824L101.744 232.345L144.683 232.345L200.344 232.345" stroke="black"/>
<path d="M117.648 350.029V248.249H158.996H200.344" stroke="black"/>
<path d="M-120.901 318.223H85.0457L85.8409 216.442H127.189H187.621L253.62 158.395L298.944 191.792" stroke="black"/>
<path d="M-120.901 302.319H69.9377V200.539H151.839L162.176 191.792M162.176 191.792L199.549 156.805L162.176 117.842L127.189 156.805L162.176 191.792Z" stroke="black"/>
<rect x="-0.5" y="0.5" width="33.987" height="33.987" transform="matrix(-1 0 0 1 179.465 138.516)" stroke="black"/>
<rect y="0.707107" width="21.4905" height="21.4905" transform="matrix(-0.707107 0.707107 0.707107 0.707107 162.471 140.314)" stroke="black"/>
<rect x="0.5" y="0.5" width="11.7226" height="11.7226" transform="matrix(4.37114e-08 1 1 -4.37114e-08 156.61 149.649)" stroke="black"/>
<line y1="-0.5" x2="69.0463" y2="-0.5" transform="matrix(0.875242 0.483686 0.483686 -0.875242 253.62 157.6)" stroke="black"/>
<path d="M253.301 158.329L328.364 191.792" stroke="black"/>
<path d="M253.354 158.349L345.063 191.792" stroke="black"/>
<line y1="-0.5" x2="113.181" y2="-0.5" transform="matrix(0.955475 0.295073 0.295073 -0.955475 253.62 157.6)" stroke="black"/>
<line y1="-0.5" x2="163.44" y2="-0.5" transform="matrix(-0.982762 -0.184876 -0.184876 0.982762 38.9263 302.319)" stroke="black"/>
<line y1="-0.5" x2="174.573" y2="-0.5" transform="matrix(-0.920085 -0.391719 -0.391719 0.920085 38.9263 302.319)" stroke="black"/>
<line y1="-0.5" x2="163.44" y2="-0.5" transform="matrix(-0.982762 -0.184876 -0.184876 0.982762 38.9263 264.152)" stroke="black"/>
<line y1="-0.5" x2="172.76" y2="-0.5" transform="matrix(-0.929741 -0.368214 -0.368214 0.929741 38.9263 264.152)" stroke="black"/>
<line y1="-0.5" x2="163.44" y2="-0.5" transform="matrix(-0.982762 -0.184876 -0.184876 0.982762 38.9263 230.755)" stroke="black"/>
<path d="M39.2039 230.011L-63.6537 191.792L39.2085 97.1682" stroke="black"/>
</g>
</svg>
