<svg width="1440" height="163" viewBox="0 0 1440 163" fill="none" xmlns="http://www.w3.org/2000/svg">
<rect x="-34" y="0.5" width="1515" height="162" fill="white"/>
<path d="M-34 49.5L1004.5 1.5C1004.5 1.5 1178.5 39.5 1214 41.5C1249.5 43.5 1299.5 12.488 1353 17C1406.5 21.512 1480.5 71 1480.5 71V162.5H-34V49.5Z" fill="#F9F9F9"/>
<path d="M-2 48L982.125 2.09043C997.646 1.36639 1013.2 2.61113 1028.4 5.79494L1180.33 37.601C1212.73 44.3853 1246.42 41.5434 1277.23 29.4253V29.4253C1323.12 11.3751 1374.6 14.1789 1418.26 37.1073L1439 48" stroke="black" stroke-width="2"/>
<line x1="1306.59" y1="20.6892" x2="1439.59" y2="116.689" stroke="#2D2D2D" stroke-width="2"/>
<line x1="1326.59" y1="17.6892" x2="1459.59" y2="113.689" stroke="#2D2D2D" stroke-width="2"/>
<line x1="1355.59" y1="17.6892" x2="1488.59" y2="113.689" stroke="#2D2D2D" stroke-width="2"/>
<line x1="1391.59" y1="25.6892" x2="1524.59" y2="121.689" stroke="#2D2D2D" stroke-width="2"/>
</svg>
