<svg width="48" height="52" viewBox="0 0 48 52" fill="none" xmlns="http://www.w3.org/2000/svg">
<g id="24 / symbols / dribbble">
<path id="icon" fill-rule="evenodd" clip-rule="evenodd" d="M24 48.9222C11.8497 48.9222 2 38.6177 2 25.9064C2 13.1952 11.8497 2.89062 24 2.89062C36.1503 2.89062 46 13.1952 46 25.9064C46 38.6177 36.1503 48.9222 24 48.9222ZM41.7355 29.1407C37.8687 28.2008 34.2532 27.9591 30.8776 28.4208C32.5596 32.7629 33.784 37.0112 34.5492 41.1663C38.2705 38.3458 40.9196 34.0719 41.7355 29.1407ZM30.8557 43.3236C30.1376 38.8034 28.8225 34.1365 26.9079 29.3237C21.5331 31.063 16.8289 34.8131 12.7405 40.5994C15.8235 43.1885 19.7389 44.7375 24 44.7375C26.4274 44.7375 28.7426 44.2349 30.8557 43.3236ZM9.89074 37.6009C7.45483 34.3886 6 30.3253 6 25.9064C6 25.4915 6.01283 25.0797 6.03809 24.6715C6.11312 24.6726 6.19166 24.6738 6.27395 24.675C12.5462 24.7688 16.4132 24.6026 20.8746 23.7494C21.9826 23.5374 23.0543 23.288 24.0879 22.9992C24.4973 23.8301 24.8897 24.6568 25.2652 25.4795C19.4439 27.4825 14.3033 31.5303 9.89074 37.6009ZM6.7538 20.4967C12.53 20.573 16.12 20.4047 20.1553 19.6329C20.826 19.5046 21.4794 19.3618 22.1153 19.2039C20.3066 15.8938 18.2358 12.5204 15.9022 9.08398C11.5304 11.3918 8.18098 15.5099 6.7538 20.4967ZM19.7911 7.59292C22.1322 11.0988 24.2127 14.5504 26.0319 17.948C29.8654 16.3971 32.8411 14.0923 34.8686 10.8944C31.8486 8.49757 28.0831 7.07532 24 7.07532C22.5506 7.07532 21.1413 7.25453 19.7911 7.59292ZM37.8022 13.818C40.2319 16.851 41.7651 20.6968 41.9752 24.909C37.4511 23.889 33.1964 23.7384 29.2241 24.4512C28.8126 23.5271 28.3809 22.5988 27.929 21.6664C32.0507 19.9215 35.388 17.3589 37.8022 13.818Z" fill="#0B0FFF"/>
</g>
</svg>
