<svg width="57" height="50" viewBox="0 0 57 50" fill="none" xmlns="http://www.w3.org/2000/svg">
<path d="M21.1131 18.4167C20.467 17.6389 19.6663 17.0417 18.711 16.625C17.7839 16.2083 16.7023 16 15.4661 16C14.2299 16 13.0781 16.2361 12.0105 16.7083C10.971 17.1806 10.0579 17.8472 9.27124 18.7083C8.51268 19.5417 7.90865 20.5417 7.45913 21.7083C7.03771 22.875 6.827 24.1389 6.827 25.5C6.827 26.8889 7.03771 28.1667 7.45913 29.3333C7.90865 30.4722 8.51268 31.4722 9.27124 32.3333C10.0298 33.1667 10.9148 33.8194 11.9262 34.2917C12.9657 34.7639 14.0754 35 15.2554 35C16.6039 35 17.798 34.7222 18.8375 34.1667C19.877 33.6111 20.7339 32.8333 21.4081 31.8333L26.8866 35.875C25.6223 37.625 24.0209 38.9167 22.0824 39.75C20.1439 40.5833 18.1491 41 16.0982 41C13.7664 41 11.6171 40.6389 9.65051 39.9167C7.68389 39.1944 5.98416 38.1667 4.55133 36.8333C3.11851 35.4722 1.99472 33.8333 1.17998 31.9167C0.393325 30 0 27.8611 0 25.5C0 23.1389 0.393325 21 1.17998 19.0833C1.99472 17.1667 3.11851 15.5417 4.55133 14.2083C5.98416 12.8472 7.68389 11.8056 9.65051 11.0833C11.6171 10.3611 13.7664 10 16.0982 10C16.9411 10 17.812 10.0833 18.711 10.25C19.6382 10.3889 20.5372 10.625 21.4081 10.9583C22.3072 11.2917 23.164 11.7361 23.9788 12.2917C24.7935 12.8472 25.524 13.5278 26.1702 14.3333L21.1131 18.4167Z" fill="#0B0FFF"/>
<path d="M27.5006 10.75H35.0019L42.3767 30.0833H42.461L49.9623 10.75H57L44.6945 40.25H39.4268L27.5006 10.75Z" fill="#0B0FFF"/>
</svg>
