<svg width="48" height="52" viewBox="0 0 48 52" fill="none" xmlns="http://www.w3.org/2000/svg">
<g id="24 / symbols / linkedin">
<path id="icon" fill-rule="evenodd" clip-rule="evenodd" d="M8 4.98291H40C42.2091 4.98291 44 6.85646 44 9.1676V42.6451C44 44.9563 42.2091 46.8298 40 46.8298H8C5.79086 46.8298 4 44.9563 4 42.6451V9.1676C4 6.85646 5.79086 4.98291 8 4.98291ZM8 9.1676V42.6451H40V9.1676H8ZM26 19.6293C24.9645 19.6293 23.8705 19.9605 22.9043 20.5754L22 19.6293H20V34.2758H24V25.9064C24 24.7017 25.1879 23.814 26 23.814H28C28.8121 23.814 30 24.7017 30 25.9064V34.2758H34V25.9064C34 22.0296 30.7879 19.6293 28 19.6293H26ZM16 17.537C17.1046 17.537 18 16.6002 18 15.4446C18 14.2891 17.1046 13.3523 16 13.3523C14.8954 13.3523 14 14.2891 14 15.4446C14 16.6002 14.8954 17.537 16 17.537ZM14 19.6293V34.2758H18V19.6293H14Z" fill="#0B0FFF"/>
</g>
</svg>
